<svg xmlns="http://www.w3.org/2000/svg" style="width:0; height:0; visibility:hidden;">

  <defs>
      <clipPath id="clip-path" transform="translate(-486.5 -42)"><rect class="cls-1" x="486.5" y="42" width="173.17" height="62.68"/></clipPath>
  </defs>
    <symbol id="icon_It-brain-logo" viewBox="0 0 164.77 151.52">
      <title>It-brain logo</title><path class="cls-1" d="M329.5,497.15L301.25,456l-6.62-2.87-18.85,2.44-0.83-.27c-0.06,0-6.54-2.11-13-4.27-3.79-1.27-6.83-2.32-9-3.11-4.06-1.46-5.54-2-6.34-3.58-0.59-.94-4.06-5.79-7.26-10.19l-17-14.24-7.58-12.28,5-23.33,10.17-17.77,24.78-13.93,19.48-6.94,37.19,4,23.79,10.32,19.19,11.94,0.46,0.65c6.56,9.43,17.25,24.74,18.5,26.36,0.72,0.79,1,1.72,1.93,5.39,0.46,1.9,1.06,4.48,1.77,7.69,1.2,5.43,2.34,10.86,2.36,10.91l0.17,0.83-6.09,26.57-15.81,1.12-16.44,13-9.85-3.57Zm-33.75-52,10.61,4.6,16.54,24.11L324.1,450l15.64,5.68,14.93-11.83,12.48-.88,4.43-19.32c-1.82-8.65-3.92-18-4.59-20.24-0.87-1.17-3.08-4.26-9.41-13.32-3.72-5.32-7.43-10.65-8.7-12.47l-17.35-10.8-22.18-9.63-34.26-3.65-17.2,6.12-22.34,12.55L227,387.06l-4.08,19.11,5.29,8.57L245,428.8l0.28,0.39c4.49,6.17,6.49,9,7.41,10.37,3,1.22,13.81,4.86,23.79,8.09Zm-42.43-4.65,0.13,0.24Z" transform="translate(-214.73 -345.63)"/><path class="cls-1" d="M326.51,457.2l-15.86-19.86c-5.94,5.71-13.47,10.88-14.2,11.78a2.08,2.08,0,0,1-2.52,1c-1.71-.62-1.43-2.65-1.28-3.73l1,0.13c0.63-.71,15.85-13.37,15.88-13.41l1.53-1.46,18.5,23.16Zm-32.69-10.68,2,0.28-1.27-.18,1.27,0.18A1.86,1.86,0,0,0,293.83,446.52Z" transform="translate(-214.73 -345.63)"/><path class="cls-1" d="M311.66,437.57a2,2,0,0,1-.86-0.2,2,2,0,0,1-1.12-1.93h3.87a1.89,1.89,0,0,0-3.5-.81c0.8-1.68,4.87-16.34,5.16-19-1.1-2.09-7.55-12.7-11.59-19.26l-0.46-.75,5.5-17.49,19.9-17.69,2.57,2.89-19.1,17-4.65,14.79c0.94,1.54,3.19,5.2,5.42,8.89,6.08,10,6.15,10.37,6.24,10.85s0.28,1.42-2.23,11.62c-0.64,2.59-1.64,4.59-2.17,6.45-1,3.43-1.23,3.86-1.79,4.29A2,2,0,0,1,311.66,437.57Z" transform="translate(-214.73 -345.63)"/><path class="cls-1" d="M316.55,416.65a2.07,2.07,0,0,1-1.22-.36l2.18-3.2a1.7,1.7,0,0,0-1-.31c1.55-.11,10.62-2.42,21.65-5.79l18.24-21.26,3.09,2.32-19,22.26-0.6.18c-0.06,0-3.21.71-9.59,2.58-3.76,1.1-6.79,2-9,2.55-1.33.36-2.39,0.62-3.15,0.78A7.94,7.94,0,0,1,316.55,416.65Z" transform="translate(-214.73 -345.63)"/><path class="cls-1" d="M352.17,447.68l-6.1-23.52c-2.81-5-7.17-12.31-8.23-13.24,0,0-2-2.24-1.48-2.18l2.67-1.37c1,0.12,1.75.8,3.3,3.07,0.82,1.2,1.86,2.84,3.09,4.9,2.15,3.58,4.13,7.13,4.15,7.16l0.12,0.22,6.23,24Z" transform="translate(-214.73 -345.63)"/><path class="cls-1" d="M349.14,425.07h0l-0.56-3.83c1.55-.23,18.59.17,23.77,0.3l-0.1,3.87C364,425.2,350.44,424.93,349.14,425.07Z" transform="translate(-214.73 -345.63)"/><path class="cls-1" d="M329.42,453.2l0-.09-3.53-1.58c0.14-.32.35-0.79,10.14-15,4.79-7,9.58-13.87,9.63-13.94l3.18,2.2C341.44,435.53,330.11,452,329.42,453.2Z" transform="translate(-214.73 -345.63)"/><path class="cls-1" d="M242.52,403.2l-18.65-11.92L226,388l17.45,11.16,33.75-3.93h0.1c2.56-.1,25.09-2,27.59-1.8l1.77,4c-1.74-.12-19.15,1.28-29.13,1.66Z" transform="translate(-214.73 -345.63)"/><path class="cls-1" d="M276.33,396.76l-3.81-.69a1.43,1.43,0,0,0,0,.25c0-.66-0.76-5.7-1.4-9.9-0.4-2.63-.81-5.35-1.1-7.4-0.25-1.74-.39-2.78-0.41-3.47-1.06-1.92-6.9-10.67-12.17-18.39l3.19-2.18s3.24,4.75,6.38,9.44c1.85,2.76,3.3,5,4.34,6.59,0.62,1,1.1,1.74,1.42,2.28a3.55,3.55,0,0,1,.71,2.2c0.08,1.2.88,6.45,1.47,10.34C276.34,395.19,276.44,396.13,276.33,396.76Z" transform="translate(-214.73 -345.63)"/><path class="cls-1" d="M252.74,442.89l-3.21-2.16L261.45,423c4-10.28,11.2-27.22,11.54-28.91a11.9,11.9,0,0,0,.28,1.22l2.69-.8c0.2,0.66.05,1.22-.42,2.65a12.06,12.06,0,0,1-.45,2.13c-0.9,2.48-9.82,24.6-9.85,24.67l-0.34.85Z" transform="translate(-214.73 -345.63)"/><path class="cls-1" d="M274.24,451.81l-1.8-3.42a1.48,1.48,0,0,0-.4.3c0.87-1,5.76-9.83,10.12-18-0.61-2.24-2.52-9.19-4.4-16.08-1.33-4.89-2.38-8.79-3.13-11.59-0.44-1.67-.78-3-1-3.85-0.13-.49-0.22-0.86-0.28-1.12s-0.06-.28-0.08-0.37a2,2,0,0,1,.9-2.12l1.26-.75,1.07,1-2.67,2.8,1.34-1.4,0.91,1.7a1.91,1.91,0,0,0,1-2c0.24,1.35,5.53,20.73,9,33.44l0.2,0.74-0.36.68s-2.51,4.75-5.09,9.45C275.36,451.22,274.91,451.45,274.24,451.81Z" transform="translate(-214.73 -345.63)"/><path class="cls-1" d="M285.48,432.33a1.63,1.63,0,0,0,.34-0.38l-3.21-2.15c0.44-.66,32.89-16.32,33.24-16.53a1,1,0,0,0-.53,1.69l1.57-.07-0.65-1.82,2.42,1a2,2,0,0,1-.93,2.55l-0.43.24-1.53.84C314.49,418.44,286.72,431.4,285.48,432.33Z" transform="translate(-214.73 -345.63)"/><path class="cls-1" d="M309,381.09c-12.93-2.26-34.14-5.86-36-5.88a1.48,1.48,0,0,0,.35-0.05l-3-4.29c0.59-.15,3.11.26,21.46,3.35,8.88,1.49,17.73,3,17.81,3.06Z" transform="translate(-214.73 -345.63)"/><path class="cls-1" d="M308.55,378.85c-1-1.17-11.43-9-19-14.65-12.9-9.66-15.25-11.5-15.75-12.25l3.23-2.14a1.3,1.3,0,0,0-.13-0.17c0.82,0.85,8.34,6.49,15,11.46,4.72,3.54,9.6,7.19,13.31,10,2,1.55,3.5,2.72,4.54,3.57,0.59,0.49,1,.86,1.34,1.15a2.36,2.36,0,0,1,.91,2.55l-3.64-1.3A1.82,1.82,0,0,0,308.55,378.85Z" transform="translate(-214.73 -345.63)"/><path class="cls-1" d="M336.36,408.74L331.2,390c-9,2.48-23.33,6.43-24.58,7a6.5,6.5,0,0,1,.47-0.5l-1.05-3c0.43-.35.74-0.6,13.6-4.24,6.17-1.75,12.34-3.45,12.4-3.46l1.87-.51,6.18,22.48Z" transform="translate(-214.73 -345.63)"/><path class="cls-1" d="M332,389.69l-0.76-3.79a1.59,1.59,0,0,0-.57.23c1.21-.86,9.94-10.12,15.76-16.42l2.84,2.63s-3.88,4.2-7.79,8.34C333.2,389.46,332.81,389.54,332,389.69Z" transform="translate(-214.73 -345.63)"/><path class="cls-1" d="M248.18,439.86l-0.44-22.67c-2.64-6.84-5.71-14.37-6.39-15.41-0.69-.85-0.65-1.87.16-5.28,0.43-1.79,1.08-4.2,1.93-7.18,1.44-5,3-10,3-10.09l0.3-1,22-6.92,1.16,3.69-20.05,6.32c-2.44,7.87-4.86,16.45-5.1,18.58a90.44,90.44,0,0,1,3.68,8.48c1.56,3.88,3,7.66,3,7.7l0.12,0.32,0.46,23.35Z" transform="translate(-214.73 -345.63)"/><path class="cls-1" d="M246.38,380.62c-0.62-.56-8-6.3-12.58-9.79l2.36-3.07c1.21,0.93,11.87,9.13,12.81,10Z" transform="translate(-214.73 -345.63)"/><path class="cls-2" d="M264.27,425.52" transform="translate(-214.73 -345.63)"/>
    </symbol>
    <symbol id="icon_arrow" viewBox="0 0 60.21 59.75">
      <title>arrow</title><polygon class="cls-1" points="5.21 0 60.21 0 60.21 55 46.21 55 46.21 22.98 10.13 59.75 0 48.77 35.6 13 5.21 13 5.21 0"/>
    </symbol>
    <symbol id="icon_bars" viewBox="0 0 302 302">
       <g> <rect y="36" width="302" height="30"/> <rect y="236" width="302" height="30"/> <rect y="136" width="302" height="30"/> </g>                
    </symbol>
    <symbol id="icon_brain" viewBox="0 0 164.77 151.52">
      <title>It-brain logo</title><path class="cls-1" d="M329.5,497.15L301.25,456l-6.62-2.87-18.85,2.44-0.83-.27c-0.06,0-6.54-2.11-13-4.27-3.79-1.27-6.83-2.32-9-3.11-4.06-1.46-5.54-2-6.34-3.58-0.59-.94-4.06-5.79-7.26-10.19l-17-14.24-7.58-12.28,5-23.33,10.17-17.77,24.78-13.93,19.48-6.94,37.19,4,23.79,10.32,19.19,11.94,0.46,0.65c6.56,9.43,17.25,24.74,18.5,26.36,0.72,0.79,1,1.72,1.93,5.39,0.46,1.9,1.06,4.48,1.77,7.69,1.2,5.43,2.34,10.86,2.36,10.91l0.17,0.83-6.09,26.57-15.81,1.12-16.44,13-9.85-3.57Zm-33.75-52,10.61,4.6,16.54,24.11L324.1,450l15.64,5.68,14.93-11.83,12.48-.88,4.43-19.32c-1.82-8.65-3.92-18-4.59-20.24-0.87-1.17-3.08-4.26-9.41-13.32-3.72-5.32-7.43-10.65-8.7-12.47l-17.35-10.8-22.18-9.63-34.26-3.65-17.2,6.12-22.34,12.55L227,387.06l-4.08,19.11,5.29,8.57L245,428.8l0.28,0.39c4.49,6.17,6.49,9,7.41,10.37,3,1.22,13.81,4.86,23.79,8.09Zm-42.43-4.65,0.13,0.24Z" transform="translate(-214.73 -345.63)"/><path class="cls-1" d="M326.51,457.2l-15.86-19.86c-5.94,5.71-13.47,10.88-14.2,11.78a2.08,2.08,0,0,1-2.52,1c-1.71-.62-1.43-2.65-1.28-3.73l1,0.13c0.63-.71,15.85-13.37,15.88-13.41l1.53-1.46,18.5,23.16Zm-32.69-10.68,2,0.28-1.27-.18,1.27,0.18A1.86,1.86,0,0,0,293.83,446.52Z" transform="translate(-214.73 -345.63)"/><path class="cls-1" d="M311.66,437.57a2,2,0,0,1-.86-0.2,2,2,0,0,1-1.12-1.93h3.87a1.89,1.89,0,0,0-3.5-.81c0.8-1.68,4.87-16.34,5.16-19-1.1-2.09-7.55-12.7-11.59-19.26l-0.46-.75,5.5-17.49,19.9-17.69,2.57,2.89-19.1,17-4.65,14.79c0.94,1.54,3.19,5.2,5.42,8.89,6.08,10,6.15,10.37,6.24,10.85s0.28,1.42-2.23,11.62c-0.64,2.59-1.64,4.59-2.17,6.45-1,3.43-1.23,3.86-1.79,4.29A2,2,0,0,1,311.66,437.57Z" transform="translate(-214.73 -345.63)"/><path class="cls-1" d="M316.55,416.65a2.07,2.07,0,0,1-1.22-.36l2.18-3.2a1.7,1.7,0,0,0-1-.31c1.55-.11,10.62-2.42,21.65-5.79l18.24-21.26,3.09,2.32-19,22.26-0.6.18c-0.06,0-3.21.71-9.59,2.58-3.76,1.1-6.79,2-9,2.55-1.33.36-2.39,0.62-3.15,0.78A7.94,7.94,0,0,1,316.55,416.65Z" transform="translate(-214.73 -345.63)"/><path class="cls-1" d="M352.17,447.68l-6.1-23.52c-2.81-5-7.17-12.31-8.23-13.24,0,0-2-2.24-1.48-2.18l2.67-1.37c1,0.12,1.75.8,3.3,3.07,0.82,1.2,1.86,2.84,3.09,4.9,2.15,3.58,4.13,7.13,4.15,7.16l0.12,0.22,6.23,24Z" transform="translate(-214.73 -345.63)"/><path class="cls-1" d="M349.14,425.07h0l-0.56-3.83c1.55-.23,18.59.17,23.77,0.3l-0.1,3.87C364,425.2,350.44,424.93,349.14,425.07Z" transform="translate(-214.73 -345.63)"/><path class="cls-1" d="M329.42,453.2l0-.09-3.53-1.58c0.14-.32.35-0.79,10.14-15,4.79-7,9.58-13.87,9.63-13.94l3.18,2.2C341.44,435.53,330.11,452,329.42,453.2Z" transform="translate(-214.73 -345.63)"/><path class="cls-1" d="M242.52,403.2l-18.65-11.92L226,388l17.45,11.16,33.75-3.93h0.1c2.56-.1,25.09-2,27.59-1.8l1.77,4c-1.74-.12-19.15,1.28-29.13,1.66Z" transform="translate(-214.73 -345.63)"/><path class="cls-1" d="M276.33,396.76l-3.81-.69a1.43,1.43,0,0,0,0,.25c0-.66-0.76-5.7-1.4-9.9-0.4-2.63-.81-5.35-1.1-7.4-0.25-1.74-.39-2.78-0.41-3.47-1.06-1.92-6.9-10.67-12.17-18.39l3.19-2.18s3.24,4.75,6.38,9.44c1.85,2.76,3.3,5,4.34,6.59,0.62,1,1.1,1.74,1.42,2.28a3.55,3.55,0,0,1,.71,2.2c0.08,1.2.88,6.45,1.47,10.34C276.34,395.19,276.44,396.13,276.33,396.76Z" transform="translate(-214.73 -345.63)"/><path class="cls-1" d="M252.74,442.89l-3.21-2.16L261.45,423c4-10.28,11.2-27.22,11.54-28.91a11.9,11.9,0,0,0,.28,1.22l2.69-.8c0.2,0.66.05,1.22-.42,2.65a12.06,12.06,0,0,1-.45,2.13c-0.9,2.48-9.82,24.6-9.85,24.67l-0.34.85Z" transform="translate(-214.73 -345.63)"/><path class="cls-1" d="M274.24,451.81l-1.8-3.42a1.48,1.48,0,0,0-.4.3c0.87-1,5.76-9.83,10.12-18-0.61-2.24-2.52-9.19-4.4-16.08-1.33-4.89-2.38-8.79-3.13-11.59-0.44-1.67-.78-3-1-3.85-0.13-.49-0.22-0.86-0.28-1.12s-0.06-.28-0.08-0.37a2,2,0,0,1,.9-2.12l1.26-.75,1.07,1-2.67,2.8,1.34-1.4,0.91,1.7a1.91,1.91,0,0,0,1-2c0.24,1.35,5.53,20.73,9,33.44l0.2,0.74-0.36.68s-2.51,4.75-5.09,9.45C275.36,451.22,274.91,451.45,274.24,451.81Z" transform="translate(-214.73 -345.63)"/><path class="cls-1" d="M285.48,432.33a1.63,1.63,0,0,0,.34-0.38l-3.21-2.15c0.44-.66,32.89-16.32,33.24-16.53a1,1,0,0,0-.53,1.69l1.57-.07-0.65-1.82,2.42,1a2,2,0,0,1-.93,2.55l-0.43.24-1.53.84C314.49,418.44,286.72,431.4,285.48,432.33Z" transform="translate(-214.73 -345.63)"/><path class="cls-1" d="M309,381.09c-12.93-2.26-34.14-5.86-36-5.88a1.48,1.48,0,0,0,.35-0.05l-3-4.29c0.59-.15,3.11.26,21.46,3.35,8.88,1.49,17.73,3,17.81,3.06Z" transform="translate(-214.73 -345.63)"/><path class="cls-1" d="M308.55,378.85c-1-1.17-11.43-9-19-14.65-12.9-9.66-15.25-11.5-15.75-12.25l3.23-2.14a1.3,1.3,0,0,0-.13-0.17c0.82,0.85,8.34,6.49,15,11.46,4.72,3.54,9.6,7.19,13.31,10,2,1.55,3.5,2.72,4.54,3.57,0.59,0.49,1,.86,1.34,1.15a2.36,2.36,0,0,1,.91,2.55l-3.64-1.3A1.82,1.82,0,0,0,308.55,378.85Z" transform="translate(-214.73 -345.63)"/><path class="cls-1" d="M336.36,408.74L331.2,390c-9,2.48-23.33,6.43-24.58,7a6.5,6.5,0,0,1,.47-0.5l-1.05-3c0.43-.35.74-0.6,13.6-4.24,6.17-1.75,12.34-3.45,12.4-3.46l1.87-.51,6.18,22.48Z" transform="translate(-214.73 -345.63)"/><path class="cls-1" d="M332,389.69l-0.76-3.79a1.59,1.59,0,0,0-.57.23c1.21-.86,9.94-10.12,15.76-16.42l2.84,2.63s-3.88,4.2-7.79,8.34C333.2,389.46,332.81,389.54,332,389.69Z" transform="translate(-214.73 -345.63)"/><path class="cls-1" d="M248.18,439.86l-0.44-22.67c-2.64-6.84-5.71-14.37-6.39-15.41-0.69-.85-0.65-1.87.16-5.28,0.43-1.79,1.08-4.2,1.93-7.18,1.44-5,3-10,3-10.09l0.3-1,22-6.92,1.16,3.69-20.05,6.32c-2.44,7.87-4.86,16.45-5.1,18.58a90.44,90.44,0,0,1,3.68,8.48c1.56,3.88,3,7.66,3,7.7l0.12,0.32,0.46,23.35Z" transform="translate(-214.73 -345.63)"/><path class="cls-1" d="M246.38,380.62c-0.62-.56-8-6.3-12.58-9.79l2.36-3.07c1.21,0.93,11.87,9.13,12.81,10Z" transform="translate(-214.73 -345.63)"/><path class="cls-2" d="M264.27,425.52" transform="translate(-214.73 -345.63)"/>
    </symbol>
    <symbol id="icon_cross" viewBox="0 0 59 59">
      <path d="M0 3.806l2.8-2.809 26.692 26.689 26.688-26.689 2.81 2.809-26.69 26.686 26.69 26.686-2.81 2.809-26.688-26.689-26.692 26.689-2.8-2.809 26.686-26.686z"/>
    </symbol>
    <symbol id="icon_fb" viewBox="0 0 14.33 28">
      <title>fb</title><path class="cls-1" d="M241.09,145.76c0-1.25.09-1.76,1.88-1.76h3v-5h-4.47c-4.61,0-5.76,2.46-5.76,6.38l-0.09,2.91H232V153h4v14h5.08V153l4.74-.07,0.51-4.94h-5.25v-2.24Z" transform="translate(-232 -139)"/>
    </symbol>
    <symbol id="icon_instagram" viewBox="0 0 26.96 26.96">
      <title>instagram</title><g id="post-instagram"><path class="cls-1" d="M321.33,139.52H299.76a2.7,2.7,0,0,0-2.7,2.7v21.57a2.7,2.7,0,0,0,2.7,2.7h21.57a2.7,2.7,0,0,0,2.7-2.7V142.22A2.7,2.7,0,0,0,321.33,139.52Zm-10.78,8.09a5.39,5.39,0,1,1-5.39,5.39A5.41,5.41,0,0,1,310.54,147.61Zm-10.11,16.18a0.64,0.64,0,0,1-.67-0.67V151.65h2.83a4.59,4.59,0,0,0-.13,1.35,8.09,8.09,0,1,0,16.18,0,4.59,4.59,0,0,0-.13-1.35h2.83v11.46a0.64,0.64,0,0,1-.67.67H300.43Zm20.89-18.2a0.64,0.64,0,0,1-.67.67H318a0.64,0.64,0,0,1-.67-0.67v-2.7a0.64,0.64,0,0,1,.67-0.67h2.7a0.64,0.64,0,0,1,.67.67v2.7Z" transform="translate(-297.06 -139.52)"/></g>
    </symbol>
    <symbol id="icon_logo" viewBox="0 0 338.94 49.1">
      <title>logo</title><polygon points="61.16 14.38 61.16 6.96 37.03 6.96 37.03 42.04 61.16 42.04 61.16 34.58 46.15 34.58 46.15 27.63 58.92 27.63 58.92 20.48 46.15 20.48 46.15 14.38 61.16 14.38"/><polygon points="118.54 6.96 118.54 19.78 109 19.78 109 6.96 99.88 6.96 99.88 42.04 109 42.04 109 27.63 118.54 27.63 118.54 42.04 127.66 42.04 127.66 6.96 118.54 6.96"/><polygon points="288.31 6.96 277.62 25.43 277.62 6.96 268.5 6.96 268.5 42.04 276.36 42.04 287.16 23.52 287.16 42.04 296.28 42.04 296.28 6.96 288.31 6.96"/><polygon points="167.78 6.96 167.78 6.96 167.78 6.96 167.78 42.04 176.9 42.04 176.9 14.38 185.88 14.38 185.88 42.04 195 42.04 195 14.03 195 6.96 195 6.96 167.78 6.96"/><polygon points="32.69 21 32.69 6.96 0 6.96 0 21 7.01 21 7.01 14.38 11.78 14.38 11.78 34.58 6.17 34.58 6.17 42.04 26.51 42.04 26.51 34.58 20.9 34.58 20.9 14.38 25.67 14.38 25.67 21 32.69 21"/><rect fill="#fc1053" class="cls-1" x="335.8" width="3.15" height="49.1"/><polygon points="85.67 23.96 95.41 6.96 85.36 6.96 80.13 17.78 74.9 6.96 64.85 6.96 74.59 23.96 64.01 42.04 74.06 42.04 80.13 31.07 86.2 42.04 96.25 42.04 85.67 23.96"/><path d="M321.58,60.42H297v7h0c0,6.45,0,10.86,0,12,0,5.92-2,8.42-4.79,8.56v8.09s0.86,0,1.21,0c7.49-.32,12.12-5.45,12.12-16.11V67.84h6.87V95.5h9.12V67.44h0v-7Z" transform="translate(-60.09 -53.46)"/><path d="M380.92,81.47v6.17a6.34,6.34,0,0,1-4.24,1.15c-1.4,0-3.58-.43-4.59-1.71-1.43-1.79-1.41-3.67-1.41-6.45V75.81c0-2.8,0-4.69,1.41-6.51a5.94,5.94,0,0,1,4.59-2c2.84,0,3.68.82,4.24,1.22v4.72h7.65V63.64a19.7,19.7,0,0,0-11.89-3.75c-1.82,0-7.74,0-11.61,4.61-2.47,2.92-3.51,6.72-3.51,10.92v5.19c0,4.22,1.05,8.07,3.53,11,3.88,4.58,9.31,4.51,11.56,4.51a19.26,19.26,0,0,0,12.24-4.21V81.47h-8Z" transform="translate(-60.09 -53.46)"/><path d="M218.63,64.51a15.32,15.32,0,0,0-21.92,0c-2.47,2.92-3.49,6.72-3.49,10.92v5.19c0,4.22,1.05,8.07,3.52,11,3.88,4.58,8.68,4.51,10.92,4.51s7,0.08,10.92-4.51c2.47-2.93,3.52-6.77,3.52-11V75.44C222.12,71.23,221.09,67.43,218.63,64.51Zm-7,21.85a5.46,5.46,0,0,1-7.88,0c-1.43-1.79-1.39-3.69-1.39-6.48V75.27c0-2.8,0-4.31,1.41-6.11a5.11,5.11,0,0,1,7.85,0C213,71,213,72.46,213,75.27v5C213,83.06,213,84.56,211.61,86.36Z" transform="translate(-60.09 -53.46)"/><path d="M286.24,64.51a15.32,15.32,0,0,0-21.92,0c-2.47,2.92-3.49,6.72-3.49,10.92v5.19c0,4.22,1.05,8.07,3.52,11,3.88,4.58,8.68,4.51,10.92,4.51s7,0.08,10.92-4.51c2.47-2.93,3.52-6.77,3.52-11V75.44C289.73,71.23,288.71,67.43,286.24,64.51Zm-7,21.85a5.46,5.46,0,0,1-7.88,0c-1.43-1.79-1.39-3.69-1.39-6.48V75.27c0-2.8,0-4.31,1.41-6.11a5.11,5.11,0,0,1,7.85,0c1.43,1.8,1.41,3.31,1.41,6.11v5C280.61,83.06,280.65,84.56,279.22,86.36Z" transform="translate(-60.09 -53.46)"/>
    </symbol>
    <symbol id="icon_minus" viewBox="0 0 24 4">
      <path d="M0 4v-4h24v4z"/>
    </symbol>
    <symbol id="icon_nimax" viewBox="0 0 173.17 62.68">
      <title>nimax</title><g class="cls-2"><path fill="#20f190" class="cls-3" d="M649.93,42l-2.41,2.41L653.14,50H499.94a6.83,6.83,0,1,0,0,3.41h153.2l-5.63,5.63,2.41,2.41,9.75-9.75Z" transform="translate(-486.5 -42)"/><path d="M510.8,70.53h8.81v34.15h-7.84l-14-18.79v18.79h-8.81V70.53h7.84l14,18.77V70.53Zm17.83,0h0v34.15h8.81V70.53h-8.81Zm131,34.15-11-17.57h0l10.66-16.58H649.19l-6.05,10.23-6.05-10.23H627l10.66,16.58-11,17.57H637l6.15-10.53,6.15,10.53h10.39ZM612.83,70.53l12.39,34.15H616l-2-6H601.48l-2,6h-9.21l12.39-34.15h10.19Zm-1.45,20.32L607.74,80h0l-3.64,10.86h7.28ZM574.21,70.53l-8.05,21.87-8-21.87H546.46v34.15h8.81V85.36l7.13,19.32h7.48L577,85.35v19.32h8.81V70.53H574.21Z" transform="translate(-486.5 -42)"/></g>
    </symbol>
    <symbol id="icon_ok" viewBox="0 0 19.5 32.47">
      <title>ok</title><path class="cls-1" d="M102.81,152.27a3.32,3.32,0,0,0-1.19.62,11,11,0,0,1-12.23-.11,3.92,3.92,0,0,0-.56-0.33,2,2,0,0,0-2.28,3.29c0.22,0.21.47,0.39,0.71,0.58a12.62,12.62,0,0,0,6.73,2.4l-0.41.44L88,164.71a2,2,0,0,0-.68,1.36,2.21,2.21,0,0,0,1.27,2,1.81,1.81,0,0,0,2.18-.39c1.45-1.43,2.89-2.87,4.31-4.33,0.36-.37.55-0.44,1,0,1.38,1.45,2.82,2.84,4.23,4.26a2,2,0,0,0,1.31.67,2.22,2.22,0,0,0,2.08-1.3,1.86,1.86,0,0,0-.42-2.18c-1.86-1.88-3.74-3.75-5.61-5.63l-0.44-.47a16.69,16.69,0,0,0,4-.9,9.88,9.88,0,0,0,3.56-2.3,1.81,1.81,0,0,0,.13-2.39A1.87,1.87,0,0,0,102.81,152.27Z" transform="translate(-85.84 -135.85)"/><path class="cls-1" d="M95.53,152.28A8.22,8.22,0,1,0,87.38,144,8.21,8.21,0,0,0,95.53,152.28ZM95.59,140a4,4,0,1,1-4,4.06A4,4,0,0,1,95.59,140Z" transform="translate(-85.84 -135.85)"/>
    </symbol>
    <symbol id="icon_plus" viewBox="0 0 24 24">
      <path d="M0 14v-4h10v-10h4v10h10v4h-10v10h-4v-10z"/>
    </symbol>
    <symbol id="icon_vk" viewBox="0 0 29 19.73">
      <title>vk</title><path class="cls-1" d="M178.76,149.29a14.22,14.22,0,0,0,1.83-3.72c0.24-.89,0-1.28-0.75-1.44a2.07,2.07,0,0,0-.41,0h-4.59a1,1,0,0,0-1.08.86c-0.27.8-.55,1.59-0.87,2.35a19.86,19.86,0,0,1-2.69,4.84,0.88,0.88,0,0,1-1,.52,2.06,2.06,0,0,1-.67-1.65v-6.34c-0.1-.89-0.27-0.68-1-1.68h-4.77a1.7,1.7,0,0,0-1.3,1c-0.2.27-.26,0.67,0.15,0.76a1.78,1.78,0,0,1,1.36,1.71,22.38,22.38,0,0,1,.07,4.49,4.87,4.87,0,0,1-.24,1.28c-0.23.64-.6,0.77-1.09,0.38a5,5,0,0,1-1.06-1.37,32.13,32.13,0,0,1-2.8-6.1,1.26,1.26,0,0,0-1.15-1c-1.38,0-2.76,0-4.14,0-0.83,0-1.08.49-.74,1.38a63.87,63.87,0,0,0,5.35,11.21,14.52,14.52,0,0,0,4.07,4.48,9.49,9.49,0,0,0,6,1.53c1-.05,1.3-0.36,1.35-1.53a6,6,0,0,1,.44-2.32,0.83,0.83,0,0,1,1.41-.4,4.3,4.3,0,0,1,.76.79c0.56,0.72,1.1,1.47,1.69,2.17a3,3,0,0,0,2.69,1.28h4.22c0.68-.05,1-1,0.64-1.92a10,10,0,0,0-1-1.72,43.68,43.68,0,0,0-2.84-3.36,1.87,1.87,0,0,1-.22-2.72C177.17,151.74,178,150.53,178.76,149.29Z" transform="translate(-151.68 -143)"/>
    </symbol>
    <symbol id="icon_youtube" viewBox="0 0 28.07 33.68">
      <title>youtube</title><path id="YouTube" class="cls-1" d="M394.12,160.22h-1.85v-1.07a0.87,0.87,0,0,1,.87-0.87h0.12a0.87,0.87,0,0,1,.87.87Zm-6.93-2.3a0.79,0.79,0,0,0-.85.7v5.22a0.87,0.87,0,0,0,1.71,0v-5.22A0.79,0.79,0,0,0,387.18,157.92ZM398.44,155v9.93a4.48,4.48,0,0,1-4.59,4.33H375a4.48,4.48,0,0,1-4.59-4.33V155a4.48,4.48,0,0,1,4.59-4.33h18.89A4.48,4.48,0,0,1,398.44,155Zm-22.22,11V155.55h2.34V154h-6.24v1.52h1.95V166h2Zm7-8.91h-2v5.59a9.9,9.9,0,0,1,0,1.36c-0.16.43-.87,0.89-1.15,0a11.12,11.12,0,0,1,0-1.36v-5.63h-1.94v5.54c0,0.85,0,1.48,0,1.77a1.78,1.78,0,0,0,.5,1.44c0.88,0.63,2.56-.09,3-1V166h1.57v-8.9h0Zm6.24,6.4v-4.65c0-1.77-1.33-2.83-3.13-1.4V154h-1.95v11.94l1.6,0,0.15-.74C388.2,167.05,389.49,165.76,389.49,163.51Zm6.11-.62h-1.46c0,0.06,0,.13,0,0.2v0.82a0.8,0.8,0,0,1-.8.79H393a0.8,0.8,0,0,1-.8-0.79v-2.15h3.35v-1.26a19.9,19.9,0,0,0-.1-2.37c-0.24-1.67-2.58-1.93-3.76-1.08a2.2,2.2,0,0,0-.82,1.1,6.21,6.21,0,0,0-.25,2v2.77C390.66,167.51,396.26,166.86,395.6,162.89Zm-7.51-15.06a1.33,1.33,0,0,0,.47.59,1.36,1.36,0,0,0,.8.22,1.24,1.24,0,0,0,.75-0.23,1.79,1.79,0,0,0,.55-0.7l0,0.77h2.18v-9.25h-1.71v7.2a0.71,0.71,0,0,1-1.43,0v-7.2h-1.79v6.24c0,0.79,0,1.32,0,1.59A2.68,2.68,0,0,0,388.09,147.84Zm-6.59-5.23a7.7,7.7,0,0,1,.22-2.08,2.23,2.23,0,0,1,2.27-1.66,2.7,2.7,0,0,1,1.29.29,2.16,2.16,0,0,1,.83.76,3,3,0,0,1,.4,1,7.68,7.68,0,0,1,.11,1.52v2.34a12.67,12.67,0,0,1-.1,1.89,3,3,0,0,1-.43,1.12,2,2,0,0,1-.84.77,2.67,2.67,0,0,1-1.18.25,3.28,3.28,0,0,1-1.26-.21,1.73,1.73,0,0,1-.8-0.64,2.85,2.85,0,0,1-.41-1,10,10,0,0,1-.12-1.82v-2.45h0Zm1.7,3.68a0.87,0.87,0,1,0,1.73,0v-4.93a0.87,0.87,0,1,0-1.73,0v4.93Zm-6,2.49h2.05v-7.1l2.43-6.08h-2.24l-1.29,4.52-1.31-4.53h-2.22l2.58,6.09v7.09Z" transform="translate(-370.37 -135.59)"/>
    </symbol></svg>