<svg xmlns="http://www.w3.org/2000/svg" xmlns:xlink="http://www.w3.org/1999/xlink" viewBox="0 0 2110.31 926.84"><defs><style>.cls-1{fill:none;}.cls-2{fill:#3088f3;}.cls-3{fill:url(#New_Pattern_Swatch_1);}</style><pattern id="New_Pattern_Swatch_1" data-name="New Pattern Swatch 1" width="63.01" height="54.23" patternTransform="matrix(1, 0, 0, -1, -2.98, 539.69)" patternUnits="userSpaceOnUse" viewBox="0 0 63.01 54.23"><rect class="cls-1" width="63.01" height="54.23"/><rect class="cls-1" width="63.01" height="54.23"/><path class="cls-2" d="M0,52.73a7.34,7.34,0,0,0,0,1.5,7.37,7.37,0,0,0,1.5,0,7.34,7.34,0,0,0,0-1.46A7.37,7.37,0,0,0,0,52.73Z"/><path class="cls-2" d="M16.14,52.73a7.34,7.34,0,0,0,0,1.46,7.37,7.37,0,0,0,1.46,0,7.34,7.34,0,0,0,0-1.46A7.37,7.37,0,0,0,16.14,52.73Z"/><path class="cls-2" d="M20.53,52.73a7.34,7.34,0,0,0,0,1.46,7.37,7.37,0,0,0,1.47,0,7.34,7.34,0,0,0,0-1.5A7.37,7.37,0,0,0,20.53,52.73Z"/><path class="cls-2" d="M27.85,52.73a7.34,7.34,0,0,0,0,1.46,7.37,7.37,0,0,0,1.46,0,7.34,7.34,0,0,0,0-1.46A7.37,7.37,0,0,0,27.85,52.73Z"/><path class="cls-2" d="M33.7,52.73a7.34,7.34,0,0,0,0,1.5,7.37,7.37,0,0,0,1.46,0,7.34,7.34,0,0,0,0-1.46A7.37,7.37,0,0,0,33.7,52.73Z"/><path class="cls-2" d="M38.09,52.73a7.34,7.34,0,0,0,0,1.46,7.37,7.37,0,0,0,1.46,0,7.34,7.34,0,0,0,0-1.46A7.37,7.37,0,0,0,38.09,52.73Z"/><path class="cls-2" d="M46.87,52.73a7.34,7.34,0,0,0,0,1.46,7.37,7.37,0,0,0,1.46,0,7.34,7.34,0,0,0,0-1.46A7.37,7.37,0,0,0,46.87,52.73Z"/><path class="cls-2" d="M5.89,51.23a7.34,7.34,0,0,0,0,1.46,7.37,7.37,0,0,0,1.46,0,7.34,7.34,0,0,0,0-1.46A7.37,7.37,0,0,0,5.89,51.23Z"/><path class="cls-2" d="M57.12,51.23a7.34,7.34,0,0,0,0,1.46,7.37,7.37,0,0,0,1.46,0,7.37,7.37,0,0,0,0-1.46A7.37,7.37,0,0,0,57.12,51.23Z"/><path class="cls-2" d="M13.21,49.8a7.34,7.34,0,0,0,0,1.46,7.37,7.37,0,0,0,1.46,0,7.37,7.37,0,0,0,0-1.46A7.37,7.37,0,0,0,13.21,49.8Z"/><path class="cls-2" d="M24.92,49.8a7.34,7.34,0,0,0,0,1.46,7.37,7.37,0,0,0,1.46,0,7.37,7.37,0,0,0,0-1.46A7.37,7.37,0,0,0,24.92,49.8Z"/><path class="cls-2" d="M42.48,49.8a7.34,7.34,0,0,0,0,1.46,7.37,7.37,0,0,0,1.46,0,7.37,7.37,0,0,0,0-1.46A7.37,7.37,0,0,0,42.48,49.8Z"/><path class="cls-2" d="M49.8,49.8a7.32,7.32,0,0,0,0,1.43,7.37,7.37,0,0,0,1.46,0,7.37,7.37,0,0,0,0-1.46A7.37,7.37,0,0,0,49.8,49.8Z"/><path class="cls-2" d="M60,49.8a7.34,7.34,0,0,0,0,1.43,7.37,7.37,0,0,0,1.46,0,7.37,7.37,0,0,0,0-1.46A7.37,7.37,0,0,0,60,49.8Z"/><path class="cls-2" d="M3,48.34A7.34,7.34,0,0,0,3,49.8a7.37,7.37,0,0,0,1.46,0,7.34,7.34,0,0,0,0-1.46A7.37,7.37,0,0,0,3,48.34Z"/><path class="cls-2" d="M10.28,48.34a7.34,7.34,0,0,0,0,1.46,7.37,7.37,0,0,0,1.46,0,7.34,7.34,0,0,0,0-1.46A7.37,7.37,0,0,0,10.28,48.34Z"/><path class="cls-2" d="M19.06,48.34a7.34,7.34,0,0,0,0,1.46,7.37,7.37,0,0,0,1.46,0,7.34,7.34,0,0,0,0-1.46A7.37,7.37,0,0,0,19.06,48.34Z"/><path class="cls-2" d="M30.77,48.34a7.34,7.34,0,0,0,0,1.46,7.37,7.37,0,0,0,1.46,0,7.34,7.34,0,0,0,0-1.46A7.37,7.37,0,0,0,30.77,48.34Z"/><path class="cls-2" d="M36.63,48.34a7.32,7.32,0,0,0,0,1.46,7.37,7.37,0,0,0,1.46,0,7.34,7.34,0,0,0,0-1.46A7.37,7.37,0,0,0,36.63,48.34Z"/><path class="cls-2" d="M54.19,48.34a7.32,7.32,0,0,0,0,1.46,7.37,7.37,0,0,0,1.46,0,7.34,7.34,0,0,0,0-1.46A7.37,7.37,0,0,0,54.19,48.34Z"/><path class="cls-2" d="M0,46.88a7.34,7.34,0,0,0,0,1.46,7.37,7.37,0,0,0,1.46,0,7.34,7.34,0,0,0,0-1.46A7.37,7.37,0,0,0,0,46.88Z"/><path class="cls-2" d="M27.85,46.88a7.34,7.34,0,0,0,0,1.46,7.37,7.37,0,0,0,1.46,0,7.34,7.34,0,0,0,0-1.46A7.37,7.37,0,0,0,27.85,46.88Z"/><path class="cls-2" d="M45.41,46.88a7.34,7.34,0,0,0,0,1.46,7.37,7.37,0,0,0,1.46,0,7.34,7.34,0,0,0,0-1.46A7.37,7.37,0,0,0,45.41,46.88Z"/><path class="cls-2" d="M5.89,45.41a7.34,7.34,0,0,0,0,1.46,7.37,7.37,0,0,0,1.46,0,7.37,7.37,0,0,0,0-1.46A7.37,7.37,0,0,0,5.89,45.41Z"/><path class="cls-2" d="M22,45.41a7.34,7.34,0,0,0,0,1.46,7.37,7.37,0,0,0,1.46,0,7.37,7.37,0,0,0,0-1.46A7.37,7.37,0,0,0,22,45.41Z"/><path class="cls-2" d="M39.55,45.41a7.34,7.34,0,0,0,0,1.46,7.37,7.37,0,0,0,1.46,0,7.37,7.37,0,0,0,0-1.46A7.37,7.37,0,0,0,39.55,45.41Z"/><path class="cls-2" d="M49.8,45.41a7.34,7.34,0,0,0,0,1.46,7.37,7.37,0,0,0,1.46,0,7.37,7.37,0,0,0,0-1.46A7.37,7.37,0,0,0,49.8,45.41Z"/><path class="cls-2" d="M16.14,43.95a7.37,7.37,0,0,0,0,1.46,7.37,7.37,0,0,0,1.46,0,7.34,7.34,0,0,0,0-1.46A7.37,7.37,0,0,0,16.14,43.95Z"/><path class="cls-2" d="M24.92,43.95a7.37,7.37,0,0,0,0,1.46,7.37,7.37,0,0,0,1.46,0,7.34,7.34,0,0,0,0-1.46A7.37,7.37,0,0,0,24.92,43.95Z"/><path class="cls-2" d="M33.7,43.95a7.37,7.37,0,0,0,0,1.46,7.37,7.37,0,0,0,1.46,0,7.34,7.34,0,0,0,0-1.46A7.37,7.37,0,0,0,33.7,43.95Z"/><path class="cls-2" d="M42.48,43.95a7.37,7.37,0,0,0,0,1.46,7.37,7.37,0,0,0,1.46,0,7.34,7.34,0,0,0,0-1.46A7.37,7.37,0,0,0,42.48,43.95Z"/><path class="cls-2" d="M52.73,43.95a7.37,7.37,0,0,0,0,1.46,7.37,7.37,0,0,0,1.46,0,7.37,7.37,0,0,0,0-1.46A7.37,7.37,0,0,0,52.73,43.95Z"/><path class="cls-2" d="M58.58,43.95a7.32,7.32,0,0,0,0,1.46,7.37,7.37,0,0,0,1.46,0,7.34,7.34,0,0,0,0-1.46A7.37,7.37,0,0,0,58.58,43.95Z"/><path class="cls-2" d="M10.28,42.48a7.37,7.37,0,0,0,0,1.46,7.37,7.37,0,0,0,1.46,0,7.34,7.34,0,0,0,0-1.46A7.37,7.37,0,0,0,10.28,42.48Z"/><path class="cls-2" d="M0,41a7.37,7.37,0,0,0,0,1.46,7.37,7.37,0,0,0,1.46,0,7.37,7.37,0,0,0,0-1.46A7.37,7.37,0,0,0,0,41Z"/><path class="cls-2" d="M4.43,41a7.37,7.37,0,0,0,0,1.46,7.37,7.37,0,0,0,1.46,0,7.37,7.37,0,0,0,0-1.46A7.37,7.37,0,0,0,4.43,41Z"/><path class="cls-2" d="M29.31,41a7.37,7.37,0,0,0,0,1.46,7.37,7.37,0,0,0,1.46,0,7.37,7.37,0,0,0,0-1.46A7.37,7.37,0,0,0,29.31,41Z"/><path class="cls-2" d="M38.09,41a7.37,7.37,0,0,0,0,1.46,7.37,7.37,0,0,0,1.46,0,7.37,7.37,0,0,0,0-1.46A7.37,7.37,0,0,0,38.09,41Z"/><path class="cls-2" d="M46.87,41a7.37,7.37,0,0,0,0,1.46,7.37,7.37,0,0,0,1.46,0,7.37,7.37,0,0,0,0-1.46A7.37,7.37,0,0,0,46.87,41Z"/><path class="cls-2" d="M61.51,41a7.37,7.37,0,0,0,0,1.46,7.37,7.37,0,0,0,1.46,0A7.37,7.37,0,0,0,63,41,7.37,7.37,0,0,0,61.51,41Z"/><path class="cls-2" d="M13.21,39.56a7.37,7.37,0,0,0,0,1.46,7.37,7.37,0,0,0,1.46,0,7.34,7.34,0,0,0,0-1.46A7.37,7.37,0,0,0,13.21,39.56Z"/><path class="cls-2" d="M17.6,39.56a7.37,7.37,0,0,0,0,1.46,7.37,7.37,0,0,0,1.46,0,7.34,7.34,0,0,0,0-1.46A7.37,7.37,0,0,0,17.6,39.56Z"/><path class="cls-2" d="M22,39.56A7.37,7.37,0,0,0,22,41a7.37,7.37,0,0,0,1.46,0,7.34,7.34,0,0,0,0-1.46A7.37,7.37,0,0,0,22,39.56Z"/><path class="cls-2" d="M57.12,39.56a7.37,7.37,0,0,0,0,1.46,7.37,7.37,0,0,0,1.46,0,7.34,7.34,0,0,0,0-1.46A7.37,7.37,0,0,0,57.12,39.56Z"/><path class="cls-2" d="M7.35,38.09a7.34,7.34,0,0,0,0,1.46,7.37,7.37,0,0,0,1.46,0,7.37,7.37,0,0,0,0-1.46A7.37,7.37,0,0,0,7.35,38.09Z"/><path class="cls-2" d="M26.38,38.09a7.34,7.34,0,0,0,0,1.46,7.37,7.37,0,0,0,1.46,0,7.37,7.37,0,0,0,0-1.46A7.37,7.37,0,0,0,26.38,38.09Z"/><path class="cls-2" d="M35.16,38.09a7.34,7.34,0,0,0,0,1.46,7.37,7.37,0,0,0,1.46,0,7.37,7.37,0,0,0,0-1.46A7.37,7.37,0,0,0,35.16,38.09Z"/><path class="cls-2" d="M44,38.09a7.34,7.34,0,0,0,0,1.46,7.37,7.37,0,0,0,1.46,0,7.37,7.37,0,0,0,0-1.46A7.37,7.37,0,0,0,44,38.09Z"/><path class="cls-2" d="M52.73,38.09a7.34,7.34,0,0,0,0,1.46,7.37,7.37,0,0,0,1.46,0,7.37,7.37,0,0,0,0-1.46A7.37,7.37,0,0,0,52.73,38.09Z"/><path class="cls-2" d="M1.5,36.63a7.34,7.34,0,0,0,0,1.46,7.37,7.37,0,0,0,1.46,0,7.37,7.37,0,0,0,0-1.46A7.37,7.37,0,0,0,1.5,36.63Z"/><path class="cls-2" d="M30.77,36.63a7.34,7.34,0,0,0,0,1.46,7.37,7.37,0,0,0,1.46,0,7.37,7.37,0,0,0,0-1.46A7.37,7.37,0,0,0,30.77,36.63Z"/><path class="cls-2" d="M41,36.63a7.34,7.34,0,0,0,0,1.46,7.37,7.37,0,0,0,1.46,0,7.37,7.37,0,0,0,0-1.46A7.37,7.37,0,0,0,41,36.63Z"/><path class="cls-2" d="M48.34,36.63a7.34,7.34,0,0,0,0,1.46,7.37,7.37,0,0,0,1.46,0,7.37,7.37,0,0,0,0-1.46A7.37,7.37,0,0,0,48.34,36.63Z"/><path class="cls-2" d="M61.51,36.63a7.34,7.34,0,0,0,0,1.46,7.37,7.37,0,0,0,1.46,0,7.37,7.37,0,0,0,0-1.46A7.37,7.37,0,0,0,61.51,36.63Z"/><path class="cls-2" d="M16.14,35.17a7.34,7.34,0,0,0,0,1.46,7.37,7.37,0,0,0,1.46,0,7.34,7.34,0,0,0,0-1.46A7.37,7.37,0,0,0,16.14,35.17Z"/><path class="cls-2" d="M38.09,35.17a7.34,7.34,0,0,0,0,1.46,7.37,7.37,0,0,0,1.46,0,7.34,7.34,0,0,0,0-1.46A7.37,7.37,0,0,0,38.09,35.17Z"/><path class="cls-2" d="M58.58,35.17a7.32,7.32,0,0,0,0,1.46,7.37,7.37,0,0,0,1.46,0,7.34,7.34,0,0,0,0-1.46A7.37,7.37,0,0,0,58.58,35.17Z"/><path class="cls-2" d="M4.43,33.7a7.37,7.37,0,0,0,0,1.46,7.37,7.37,0,0,0,1.46,0,7.34,7.34,0,0,0,0-1.46A7.37,7.37,0,0,0,4.43,33.7Z"/><path class="cls-2" d="M11.75,33.7a7.37,7.37,0,0,0,0,1.46,7.37,7.37,0,0,0,1.46,0,7.34,7.34,0,0,0,0-1.46A7.37,7.37,0,0,0,11.75,33.7Z"/><path class="cls-2" d="M19.06,33.7a7.37,7.37,0,0,0,0,1.46,7.37,7.37,0,0,0,1.46,0,7.34,7.34,0,0,0,0-1.46A7.37,7.37,0,0,0,19.06,33.7Z"/><path class="cls-2" d="M23.45,33.7a7.37,7.37,0,0,0,0,1.46,7.37,7.37,0,0,0,1.46,0,7.34,7.34,0,0,0,0-1.46A7.37,7.37,0,0,0,23.45,33.7Z"/><path class="cls-2" d="M54.19,33.7a7.32,7.32,0,0,0,0,1.46,7.37,7.37,0,0,0,1.46,0,7.34,7.34,0,0,0,0-1.46A7.37,7.37,0,0,0,54.19,33.7Z"/><path class="cls-2" d="M7.35,32.23a7.34,7.34,0,0,0,0,1.46,7.37,7.37,0,0,0,1.46,0,7.37,7.37,0,0,0,0-1.46A7.37,7.37,0,0,0,7.35,32.23Z"/><path class="cls-2" d="M27.85,32.23a7.34,7.34,0,0,0,0,1.46,7.37,7.37,0,0,0,1.46,0,7.37,7.37,0,0,0,0-1.46A7.37,7.37,0,0,0,27.85,32.23Z"/><path class="cls-2" d="M33.7,32.23a7.34,7.34,0,0,0,0,1.46,7.37,7.37,0,0,0,1.46,0,7.37,7.37,0,0,0,0-1.46A7.37,7.37,0,0,0,33.7,32.23Z"/><path class="cls-2" d="M45.41,32.23a7.34,7.34,0,0,0,0,1.46,7.37,7.37,0,0,0,1.46,0,7.37,7.37,0,0,0,0-1.46A7.37,7.37,0,0,0,45.41,32.23Z"/><path class="cls-2" d="M41,30.78a7.34,7.34,0,0,0,0,1.45,7.37,7.37,0,0,0,1.46,0,7.34,7.34,0,0,0,0-1.46A7.37,7.37,0,0,0,41,30.78Z"/><path class="cls-2" d="M49.8,30.78a7.34,7.34,0,0,0,0,1.46,7.37,7.37,0,0,0,1.46,0,7.34,7.34,0,0,0,0-1.46A7.37,7.37,0,0,0,49.8,30.78Z"/><path class="cls-2" d="M61.51,30.78a7.34,7.34,0,0,0,0,1.46,7.37,7.37,0,0,0,1.49,0,7.34,7.34,0,0,0,0-1.46A7.37,7.37,0,0,0,61.51,30.78Z"/><path class="cls-2" d="M1.5,29.31a7.34,7.34,0,0,0,0,1.46,7.37,7.37,0,0,0,1.46,0,7.34,7.34,0,0,0,0-1.46A7.37,7.37,0,0,0,1.5,29.31Z"/><path class="cls-2" d="M14.67,29.31a7.34,7.34,0,0,0,0,1.46,7.37,7.37,0,0,0,1.46,0,7.34,7.34,0,0,0,0-1.46A7.37,7.37,0,0,0,14.67,29.31Z"/><path class="cls-2" d="M36.63,29.31a7.34,7.34,0,0,0,0,1.46,7.37,7.37,0,0,0,1.46,0,7.34,7.34,0,0,0,0-1.46A7.37,7.37,0,0,0,36.63,29.31Z"/><path class="cls-2" d="M55.65,29.31a7.34,7.34,0,0,0,0,1.46,7.37,7.37,0,0,0,1.46,0,7.34,7.34,0,0,0,0-1.46A7.37,7.37,0,0,0,55.65,29.31Z"/><path class="cls-2" d="M10.28,27.85a7.34,7.34,0,0,0,0,1.46,7.37,7.37,0,0,0,1.46,0,7.37,7.37,0,0,0,0-1.46A7.37,7.37,0,0,0,10.28,27.85Z"/><path class="cls-2" d="M20.53,27.85a7.34,7.34,0,0,0,0,1.46,7.37,7.37,0,0,0,1.46,0,7.37,7.37,0,0,0,0-1.46A7.37,7.37,0,0,0,20.53,27.85Z"/><path class="cls-2" d="M24.92,27.85a7.34,7.34,0,0,0,0,1.46,7.37,7.37,0,0,0,1.46,0,7.37,7.37,0,0,0,0-1.46A7.37,7.37,0,0,0,24.92,27.85Z"/><path class="cls-2" d="M30.77,27.85a7.34,7.34,0,0,0,0,1.46,7.37,7.37,0,0,0,1.46,0,7.37,7.37,0,0,0,0-1.46A7.37,7.37,0,0,0,30.77,27.85Z"/><path class="cls-2" d="M5.89,26.38a7.34,7.34,0,0,0,0,1.46,7.37,7.37,0,0,0,1.46,0,7.34,7.34,0,0,0,0-1.46A7.37,7.37,0,0,0,5.89,26.38Z"/><path class="cls-2" d="M41,26.38a7.32,7.32,0,0,0,0,1.46,7.37,7.37,0,0,0,1.46,0,7.34,7.34,0,0,0,0-1.46A7.37,7.37,0,0,0,41,26.38Z"/><path class="cls-2" d="M45.41,26.38a7.32,7.32,0,0,0,0,1.46,7.37,7.37,0,0,0,1.46,0,7.34,7.34,0,0,0,0-1.46A7.37,7.37,0,0,0,45.41,26.38Z"/><path class="cls-2" d="M51.26,26.38a7.34,7.34,0,0,0,0,1.46,7.37,7.37,0,0,0,1.46,0,7.34,7.34,0,0,0,0-1.46A7.37,7.37,0,0,0,51.26,26.38Z"/><path class="cls-2" d="M58.58,26.38a7.32,7.32,0,0,0,0,1.46,7.37,7.37,0,0,0,1.46,0,7.34,7.34,0,0,0,0-1.46A7.37,7.37,0,0,0,58.58,26.38Z"/><path class="cls-2" d="M17.6,24.92a7.37,7.37,0,0,0,0,1.46,7.37,7.37,0,0,0,1.46,0,7.34,7.34,0,0,0,0-1.46A7.37,7.37,0,0,0,17.6,24.92Z"/><path class="cls-2" d="M35.16,24.92a7.37,7.37,0,0,0,0,1.46,7.37,7.37,0,0,0,1.46,0,7.34,7.34,0,0,0,0-1.46A7.37,7.37,0,0,0,35.16,24.92Z"/><path class="cls-2" d="M0,23.46a7.34,7.34,0,0,0,0,1.46,7.37,7.37,0,0,0,1.46,0,7.37,7.37,0,0,0,0-1.46A7.37,7.37,0,0,0,0,23.46Z"/><path class="cls-2" d="M13.21,23.46a7.34,7.34,0,0,0,0,1.46,7.37,7.37,0,0,0,1.46,0,7.37,7.37,0,0,0,0-1.46A7.37,7.37,0,0,0,13.21,23.46Z"/><path class="cls-2" d="M26.38,23.46a7.34,7.34,0,0,0,0,1.46,7.37,7.37,0,0,0,1.46,0,7.37,7.37,0,0,0,0-1.46A7.37,7.37,0,0,0,26.38,23.46Z"/><path class="cls-2" d="M32.24,23.46a7.34,7.34,0,0,0,0,1.46,7.37,7.37,0,0,0,1.46,0,7.37,7.37,0,0,0,0-1.46A7.37,7.37,0,0,0,32.24,23.46Z"/><path class="cls-2" d="M55.65,23.46a7.34,7.34,0,0,0,0,1.46,7.37,7.37,0,0,0,1.46,0,7.37,7.37,0,0,0,0-1.46A7.37,7.37,0,0,0,55.65,23.46Z"/><path class="cls-2" d="M3,22a7.34,7.34,0,0,0,0,1.46,7.37,7.37,0,0,0,1.46,0,7.34,7.34,0,0,0,0-1.46A7.37,7.37,0,0,0,3,22Z"/><path class="cls-2" d="M8.82,22a7.34,7.34,0,0,0,0,1.46,7.37,7.37,0,0,0,1.46,0,7.34,7.34,0,0,0,0-1.46A7.37,7.37,0,0,0,8.82,22Z"/><path class="cls-2" d="M22,22a7.34,7.34,0,0,0,0,1.46,7.37,7.37,0,0,0,1.46,0,7.34,7.34,0,0,0,0-1.46A7.37,7.37,0,0,0,22,22Z"/><path class="cls-2" d="M38.09,22a7.34,7.34,0,0,0,0,1.46,7.37,7.37,0,0,0,1.46,0,7.34,7.34,0,0,0,0-1.46A7.37,7.37,0,0,0,38.09,22Z"/><path class="cls-2" d="M46.87,22a7.34,7.34,0,0,0,0,1.46,7.37,7.37,0,0,0,1.46,0,7.34,7.34,0,0,0,0-1.46A7.37,7.37,0,0,0,46.87,22Z"/><path class="cls-2" d="M51.26,22a7.34,7.34,0,0,0,0,1.46,7.37,7.37,0,0,0,1.46,0,7.34,7.34,0,0,0,0-1.46A7.37,7.37,0,0,0,51.26,22Z"/><path class="cls-2" d="M29.31,20.53a7.34,7.34,0,0,0,0,1.46,7.37,7.37,0,0,0,1.46,0,7.34,7.34,0,0,0,0-1.46A7.37,7.37,0,0,0,29.31,20.53Z"/><path class="cls-2" d="M42.48,20.53a7.34,7.34,0,0,0,0,1.46,7.37,7.37,0,0,0,1.46,0,7.34,7.34,0,0,0,0-1.46A7.37,7.37,0,0,0,42.48,20.53Z"/><path class="cls-2" d="M58.58,20.53a7.34,7.34,0,0,0,0,1.46A7.37,7.37,0,0,0,60,22a7.34,7.34,0,0,0,0-1.46A7.37,7.37,0,0,0,58.58,20.53Z"/><path class="cls-2" d="M16.14,19.07a7.37,7.37,0,0,0,0,1.46,7.37,7.37,0,0,0,1.46,0,7.37,7.37,0,0,0,0-1.46A7.37,7.37,0,0,0,16.14,19.07Z"/><path class="cls-2" d="M5.89,17.6a7.34,7.34,0,0,0,0,1.46,7.37,7.37,0,0,0,1.46,0,7.34,7.34,0,0,0,0-1.46A7.37,7.37,0,0,0,5.89,17.6Z"/><path class="cls-2" d="M13.21,17.6a7.34,7.34,0,0,0,0,1.46,7.37,7.37,0,0,0,1.46,0,7.34,7.34,0,0,0,0-1.46A7.37,7.37,0,0,0,13.21,17.6Z"/><path class="cls-2" d="M24.92,17.6a7.34,7.34,0,0,0,0,1.46,7.37,7.37,0,0,0,1.46,0,7.34,7.34,0,0,0,0-1.46A7.37,7.37,0,0,0,24.92,17.6Z"/><path class="cls-2" d="M33.7,17.6a7.34,7.34,0,0,0,0,1.46,7.37,7.37,0,0,0,1.46,0,7.34,7.34,0,0,0,0-1.46A7.37,7.37,0,0,0,33.7,17.6Z"/><path class="cls-2" d="M49.8,17.6a7.32,7.32,0,0,0,0,1.46,7.37,7.37,0,0,0,1.46,0,7.34,7.34,0,0,0,0-1.46A7.37,7.37,0,0,0,49.8,17.6Z"/><path class="cls-2" d="M55.65,17.6a7.34,7.34,0,0,0,0,1.46,7.37,7.37,0,0,0,1.46,0,7.34,7.34,0,0,0,0-1.46A7.37,7.37,0,0,0,55.65,17.6Z"/><path class="cls-2" d="M1.5,16.14a7.34,7.34,0,0,0,0,1.46A7.37,7.37,0,0,0,3,17.6a7.34,7.34,0,0,0,0-1.46A7.37,7.37,0,0,0,1.5,16.14Z"/><path class="cls-2" d="M20.53,16.14a7.34,7.34,0,0,0,0,1.46,7.37,7.37,0,0,0,1.46,0,7.34,7.34,0,0,0,0-1.46A7.37,7.37,0,0,0,20.53,16.14Z"/><path class="cls-2" d="M45.41,16.14a7.34,7.34,0,0,0,0,1.46,7.37,7.37,0,0,0,1.46,0,7.34,7.34,0,0,0,0-1.46A7.37,7.37,0,0,0,45.41,16.14Z"/><path class="cls-2" d="M61.51,16.14a7.34,7.34,0,0,0,0,1.46,7.37,7.37,0,0,0,1.46,0,7.34,7.34,0,0,0,0-1.46A7.37,7.37,0,0,0,61.51,16.14Z"/><path class="cls-2" d="M8.82,14.68a7.34,7.34,0,0,0,0,1.46,7.37,7.37,0,0,0,1.46,0,7.34,7.34,0,0,0,0-1.46A7.37,7.37,0,0,0,8.82,14.68Z"/><path class="cls-2" d="M29.31,14.68a7.34,7.34,0,0,0,0,1.46,7.37,7.37,0,0,0,1.46,0,7.34,7.34,0,0,0,0-1.46A7.37,7.37,0,0,0,29.31,14.68Z"/><path class="cls-2" d="M36.63,14.68a7.34,7.34,0,0,0,0,1.46,7.37,7.37,0,0,0,1.46,0,7.34,7.34,0,0,0,0-1.46A7.37,7.37,0,0,0,36.63,14.68Z"/><path class="cls-2" d="M41,14.68a7.34,7.34,0,0,0,0,1.46,7.37,7.37,0,0,0,1.46,0,7.34,7.34,0,0,0,0-1.46A7.37,7.37,0,0,0,41,14.68Z"/><path class="cls-2" d="M51.26,13.23a7.34,7.34,0,0,0,0,1.46,7.37,7.37,0,0,0,1.46,0,7.34,7.34,0,0,0,0-1.46A7.37,7.37,0,0,0,51.26,13.23Z"/><path class="cls-2" d="M58.58,13.23a7.34,7.34,0,0,0,0,1.46,7.37,7.37,0,0,0,1.46,0,7.34,7.34,0,0,0,0-1.46A7.37,7.37,0,0,0,58.58,13.23Z"/><path class="cls-2" d="M3,11.75a7.37,7.37,0,0,0,0,1.48,7.37,7.37,0,0,0,1.46,0,7.34,7.34,0,0,0,0-1.46A7.37,7.37,0,0,0,3,11.75Z"/><path class="cls-2" d="M13.21,11.75a7.37,7.37,0,0,0,0,1.46,7.37,7.37,0,0,0,1.46,0,7.34,7.34,0,0,0,0-1.46A7.37,7.37,0,0,0,13.21,11.75Z"/><path class="cls-2" d="M17.6,11.75a7.37,7.37,0,0,0,0,1.46,7.37,7.37,0,0,0,1.46,0,7.34,7.34,0,0,0,0-1.46A7.37,7.37,0,0,0,17.6,11.75Z"/><path class="cls-2" d="M23.45,11.75a7.37,7.37,0,0,0,0,1.46,7.37,7.37,0,0,0,1.46,0,7.34,7.34,0,0,0,0-1.46A7.37,7.37,0,0,0,23.45,11.75Z"/><path class="cls-2" d="M48.34,11.75a7.37,7.37,0,0,0,0,1.46,7.37,7.37,0,0,0,1.46,0,7.37,7.37,0,0,0,0-1.46A7.37,7.37,0,0,0,48.34,11.75Z"/><path class="cls-2" d="M55.65,11.75a7.37,7.37,0,0,0,0,1.46,7.37,7.37,0,0,0,1.46,0,7.34,7.34,0,0,0,0-1.46A7.37,7.37,0,0,0,55.65,11.75Z"/><path class="cls-2" d="M26.38,10.29a7.37,7.37,0,0,0,0,1.46,7.37,7.37,0,0,0,1.46,0,7.37,7.37,0,0,0,0-1.46A7.37,7.37,0,0,0,26.38,10.29Z"/><path class="cls-2" d="M33.7,10.29a7.37,7.37,0,0,0,0,1.46,7.37,7.37,0,0,0,1.46,0,7.37,7.37,0,0,0,0-1.46A7.37,7.37,0,0,0,33.7,10.29Z"/><path class="cls-2" d="M44,10.29a7.37,7.37,0,0,0,0,1.46,7.37,7.37,0,0,0,1.46,0,7.37,7.37,0,0,0,0-1.46A7.37,7.37,0,0,0,44,10.29Z"/><path class="cls-2" d="M61.51,10.29a7.37,7.37,0,0,0,0,1.46,7.37,7.37,0,0,0,1.46,0,7.37,7.37,0,0,0,0-1.46A7.37,7.37,0,0,0,61.51,10.29Z"/><path class="cls-2" d="M8.82,8.82a7.34,7.34,0,0,0,0,1.46,7.37,7.37,0,0,0,1.46,0,7.34,7.34,0,0,0,0-1.46A7.37,7.37,0,0,0,8.82,8.82Z"/><path class="cls-2" d="M29.31,8.82a7.34,7.34,0,0,0,0,1.46,7.37,7.37,0,0,0,1.46,0,7.34,7.34,0,0,0,0-1.46A7.37,7.37,0,0,0,29.31,8.82Z"/><path class="cls-2" d="M39.55,8.82a7.34,7.34,0,0,0,0,1.46,7.37,7.37,0,0,0,1.46,0,7.34,7.34,0,0,0,0-1.46A7.37,7.37,0,0,0,39.55,8.82Z"/><path class="cls-2" d="M3,7.36A7.34,7.34,0,0,0,3,8.82a7.37,7.37,0,0,0,1.46,0,7.37,7.37,0,0,0,0-1.46A7.37,7.37,0,0,0,3,7.36Z"/><path class="cls-2" d="M16.14,7.36a7.34,7.34,0,0,0,0,1.46,7.37,7.37,0,0,0,1.46,0,7.37,7.37,0,0,0,0-1.46A7.37,7.37,0,0,0,16.14,7.36Z"/><path class="cls-2" d="M20.53,7.36a7.34,7.34,0,0,0,0,1.46,7.37,7.37,0,0,0,1.46,0,7.37,7.37,0,0,0,0-1.46A7.37,7.37,0,0,0,20.53,7.36Z"/><path class="cls-2" d="M52.73,7.36a7.34,7.34,0,0,0,0,1.46,7.37,7.37,0,0,0,1.46,0,7.37,7.37,0,0,0,0-1.46A7.37,7.37,0,0,0,52.73,7.36Z"/><path class="cls-2" d="M0,5.89A7.37,7.37,0,0,0,0,7.35a7.37,7.37,0,0,0,1.46,0,7.37,7.37,0,0,0,0-1.46A7.37,7.37,0,0,0,0,5.89Z"/><path class="cls-2" d="M11.75,5.89a7.37,7.37,0,0,0,0,1.46,7.37,7.37,0,0,0,1.46,0,7.37,7.37,0,0,0,0-1.46A7.37,7.37,0,0,0,11.75,5.89Z"/><path class="cls-2" d="M36.63,5.89a7.32,7.32,0,0,0,0,1.46,7.37,7.37,0,0,0,1.46,0,7.37,7.37,0,0,0,0-1.46A7.37,7.37,0,0,0,36.63,5.89Z"/><path class="cls-2" d="M46.87,5.89a7.37,7.37,0,0,0,0,1.46,7.37,7.37,0,0,0,1.46,0,7.37,7.37,0,0,0,0-1.46A7.37,7.37,0,0,0,46.87,5.89Z"/><path class="cls-2" d="M57.12,5.89a7.37,7.37,0,0,0,0,1.46,7.37,7.37,0,0,0,1.46,0,7.37,7.37,0,0,0,0-1.46A7.37,7.37,0,0,0,57.12,5.89Z"/><path class="cls-2" d="M7.35,4.43a7.34,7.34,0,0,0,0,1.46,7.37,7.37,0,0,0,1.46,0,7.34,7.34,0,0,0,0-1.46A7.37,7.37,0,0,0,7.35,4.43Z"/><path class="cls-2" d="M24.92,4.43a7.34,7.34,0,0,0,0,1.46,7.37,7.37,0,0,0,1.46,0,7.34,7.34,0,0,0,0-1.46A7.37,7.37,0,0,0,24.92,4.43Z"/><path class="cls-2" d="M32.24,4.43a7.34,7.34,0,0,0,0,1.46,7.37,7.37,0,0,0,1.46,0,7.34,7.34,0,0,0,0-1.46A7.37,7.37,0,0,0,32.24,4.43Z"/><path class="cls-2" d="M42.48,4.43a7.34,7.34,0,0,0,0,1.46,7.37,7.37,0,0,0,1.46,0,7.34,7.34,0,0,0,0-1.46A7.37,7.37,0,0,0,42.48,4.43Z"/><path class="cls-2" d="M49.8,3a7.34,7.34,0,0,0,0,1.46,7.37,7.37,0,0,0,1.46,0,7.34,7.34,0,0,0,0-1.46A7.37,7.37,0,0,0,49.8,3Z"/><path class="cls-2" d="M60,3a7.34,7.34,0,0,0,0,1.46,7.37,7.37,0,0,0,1.46,0,7.34,7.34,0,0,0,0-1.46A7.37,7.37,0,0,0,60,3Z"/><path class="cls-2" d="M3,1.5A7.37,7.37,0,0,0,3,3,7.37,7.37,0,0,0,4.46,3a7.34,7.34,0,0,0,0-1.46A7.37,7.37,0,0,0,3,1.5Z"/><path class="cls-2" d="M14.67,1.5a7.37,7.37,0,0,0,0,1.46,7.37,7.37,0,0,0,1.46,0,7.34,7.34,0,0,0,0-1.46A7.37,7.37,0,0,0,14.67,1.5Z"/><path class="cls-2" d="M19.06,1.5a7.37,7.37,0,0,0,0,1.46,7.37,7.37,0,0,0,1.46,0,7.34,7.34,0,0,0,0-1.46A7.37,7.37,0,0,0,19.06,1.5Z"/><path class="cls-2" d="M29.31,1.5a7.37,7.37,0,0,0,0,1.46,7.37,7.37,0,0,0,1.46,0,7.34,7.34,0,0,0,0-1.46A7.37,7.37,0,0,0,29.31,1.5Z"/><path class="cls-2" d="M54.19,1.5a7.32,7.32,0,0,0,0,1.46,7.37,7.37,0,0,0,1.46,0,7.34,7.34,0,0,0,0-1.46A7.37,7.37,0,0,0,54.19,1.5Z"/><path class="cls-2" d="M10.28,0a7.34,7.34,0,0,0,0,1.46,7.37,7.37,0,0,0,1.46,0,7.37,7.37,0,0,0,0-1.46A7.37,7.37,0,0,0,10.28,0Z"/><path class="cls-2" d="M23.45,0a7.34,7.34,0,0,0,0,1.46,7.37,7.37,0,0,0,1.46,0,7.37,7.37,0,0,0,0-1.46A7.37,7.37,0,0,0,23.45,0Z"/><path class="cls-2" d="M36.63,0a7.34,7.34,0,0,0,0,1.46,7.37,7.37,0,0,0,1.46,0,7.37,7.37,0,0,0,0-1.46A7.37,7.37,0,0,0,36.63,0Z"/><path class="cls-2" d="M41,0A7.34,7.34,0,0,0,41,1.5a7.37,7.37,0,0,0,1.46,0,7.37,7.37,0,0,0,0-1.46A7.37,7.37,0,0,0,41,0Z"/><path class="cls-2" d="M46.87,0a7.34,7.34,0,0,0,0,1.46,7.37,7.37,0,0,0,1.46,0,7.37,7.37,0,0,0,0-1.46A7.37,7.37,0,0,0,46.87,0Z"/></pattern></defs><title>bg</title><g id="Layer_2" data-name="Layer 2"><g id="Layer_1-2" data-name="Layer 1"><g id="Layer_2-2" data-name="Layer 2"><g id="Isolation_Mode" data-name="Isolation Mode"><rect class="cls-3" width="2110.31" height="926.84"/></g></g></g></g></svg>